Coordinates
version=1
nRows=10
nColumns=40
inDegrees=yes

Units are S.I. units (second, meters, Newtons, ...)
Angles are in degrees.

endheader
time	pelvis_tilt	pelvis_list	pelvis_rotation	pelvis_tx	pelvis_ty	pelvis_tz	hip_flexion_r	hip_adduction_r	hip_rotation_r	knee_angle_r	knee_angle_r_beta	ankle_angle_r	subtalar_angle_r	mtp_angle_r	hip_flexion_l	hip_adduction_l	hip_rotation_l	knee_angle_l	knee_angle_l_beta	ankle_angle_l	subtalar_angle_l	mtp_angle_l	lumbar_extension	lumbar_bending	lumbar_rotation	arm_flex_r	arm_add_r	arm_rot_r	elbow_flex_r	pro_sup_r	wrist_flex_r	wrist_dev_r	arm_flex_l	arm_add_l	arm_rot_l	elbow_flex_l	pro_sup_l	wrist_flex_l	wrist_dev_l
     47.56342857	     -4.54542561	     -3.49715444	     -4.19567294	      0.78494077	      0.92719563	      0.44295459	     26.68358604	     -1.92537389	    -14.43911276	     14.98090093	     14.98090093	      5.14929671	      5.37293785	      5.70407697	      1.76208849	     -3.46998037	    -13.47107298	     12.92073575	     12.92073575	     17.28776459	     -1.98197564	     -4.26304375	    -10.01780457	      3.80081333	      0.02351768	    -16.18359792	    -11.76410916	     -7.39276365	     27.29125090	     46.36747318	      0.00000000	      0.00000000	     14.72948329	    -23.37674748	    -14.31651173	     78.19764872	     47.87984677	      0.00000000	      0.00000000
     47.57685714	     -4.58104838	     -3.16778788	     -4.21154297	      0.78610172	      0.92562346	      0.44422718	     26.59837660	     -1.97548917	    -14.64227522	     14.10613979	     14.10613979	      4.99819079	      5.87844486	      6.17009799	      1.13190859	     -3.13145484	    -13.51863441	     12.70210484	     12.70210484	     17.58929721	     -1.82559428	     -4.52037921	     -9.72580014	      3.45981276	     -0.07461851	    -16.34197315	    -11.90336223	     -7.46873028	     27.28198033	     46.37223948	      0.00000000	      0.00000000	     14.63107207	    -23.19257672	    -14.13477457	     78.12782880	     47.86586055	      0.00000000	      0.00000000
     47.59028571	     -4.44531334	     -3.17493969	     -4.20921578	      0.78758993	      0.92454228	      0.44576797	     26.14634460	     -1.73605195	    -15.12478659	     13.42486174	     13.42486174	      4.68282082	      6.62457700	      6.64687975	      0.07936127	     -3.12105563	    -13.56362443	     12.10808054	     12.10808054	     17.84266367	     -1.49564604	     -4.75390887	     -9.66030562	      3.51453042	     -0.09413939	    -16.29183019	    -12.04358330	     -7.58656488	     27.32830416	     46.37954060	      0.00000000	      0.00000000	     14.45986358	    -22.99714778	    -13.83482389	     77.87532952	     47.84283877	      0.00000000	      0.00000000
     47.60371429	     -4.45526668	     -3.08276085	     -4.15364070	      0.78886914	      0.92309522	      0.44731591	     26.10048242	     -1.68148864	    -15.27286180	     13.52408913	     13.52408913	      4.34244755	      6.64943405	      6.72353033	     -0.51559699	     -3.08482152	    -13.48184762	     12.04424174	     12.04424174	     18.22850243	     -1.44630104	     -4.92143535	     -9.45325375	      3.46532849	     -0.12603685	    -16.15746840	    -12.16448327	     -7.62837328	     27.37862711	     46.38194850	      0.00000000	      0.00000000	     14.24702428	    -22.70670006	    -13.66016091	     77.73477093	     47.82768210	      0.00000000	      0.00000000
     47.61714286	     -4.33413528	     -3.04461061	     -4.09198768	      0.79049380	      0.92195707	      0.44897920	     25.93151592	     -1.64455562	    -15.40890650	     14.02503929	     14.02503929	      3.92308110	      6.60059276	      6.15629735	     -1.47436637	     -3.06631357	    -13.51643635	     11.59936983	     11.59936983	     18.52231708	     -1.09457055	     -4.97684854	     -9.35379301	      3.49835238	     -0.26195966	    -15.83424481	    -12.37416119	     -7.79565197	     27.48878948	     46.39269038	      0.00000000	      0.00000000	     13.88869341	    -22.51344171	    -13.30210889	     77.00512163	     47.79142818	      0.00000000	      0.00000000
     47.63057143	     -4.32727112	     -3.10444080	     -3.95789254	      0.79197619	      0.92078877	      0.45065512	     25.79635624	     -1.53145515	    -15.48501734	     14.58528039	     14.58528039	      3.53769613	      6.35729798	      5.95492431	     -2.04330626	     -3.22766530	    -13.34183544	     11.64322774	     11.64322774	     18.89575907	     -1.07744517	     -5.06287699	     -9.19473484	      3.66594119	     -0.23930806	    -15.43671549	    -12.50444432	     -7.83891856	     27.62130018	     46.39403467	      0.00000000	      0.00000000	     13.43480404	    -21.94859820	    -13.01719783	     76.71730076	     47.76441014	      0.00000000	      0.00000000
     47.64400000	     -4.29056746	     -3.06762428	     -3.77950796	      0.79362631	      0.91944662	      0.45254851	     25.75630175	     -1.45248665	    -14.83779314	     15.38786388	     15.38786388	      1.59124394	      4.52101060	      0.37282289	     -2.50762659	     -3.37023863	    -13.39184053	     12.01485554	     12.01485554	     19.86757062	     -0.60819820	     -3.81353451	     -8.95809724	      3.73251589	     -0.10989426	    -15.06861133	    -12.61705144	     -8.59941059	     27.58138359	     46.44979167	      0.00000000	      0.00000000	     13.53832558	    -21.63602548	    -12.23494901	     74.77218032	     47.69319464	      0.00000000	      0.00000000
     47.65742857	     -4.18960088	     -3.21710464	     -3.58042233	      0.79531407	      0.91864209	      0.45439659	     25.49149074	     -1.31612731	    -14.82336316	     16.22278949	     16.22278949	      1.57943030	      4.20187673	      0.13861706	     -3.10610634	     -3.66925108	    -13.13152860	     12.20384366	     12.20384366	     20.26039344	     -0.65156091	     -3.91222508	     -8.93991033	      3.98037594	     -0.02921293	    -14.43762229	    -12.67913954	     -8.62791699	     27.82667036	     46.44695601	      0.00000000	      0.00000000	     12.86709093	    -20.93431386	    -11.91617574	     74.45894524	     47.66146700	      0.00000000	      0.00000000
     47.67085714	     -4.11953859	     -3.23108047	     -3.33195192	      0.79691504	      0.91763726	      0.45637906	     25.69100203	     -1.27961529	    -13.96216523	     17.80744561	     17.80744561	      1.09262029	      1.99892518	     -2.52792698	     -3.28630472	     -3.96934810	    -13.10115746	     13.17177564	     13.17177564	     21.33955974	     -0.33015118	     -2.37041560	     -8.82321074	      4.13971919	     -0.28910253	    -13.71518332	    -12.87056576	     -9.27501617	     28.19498501	     46.47241075	      0.00000000	      0.00000000	     12.38243014	    -20.68049452	    -11.64011824	     72.91747785	     47.62625496	      0.00000000	      0.00000000
     47.68428571	     -4.02948034	     -3.35128095	     -3.04918478	      0.79859966	      0.91702738	      0.45834399	     25.68099777	     -1.19000575	    -13.56111230	     19.17569735	     19.17569735	      1.50086975	      0.84388228	     -2.95499431	     -3.51066212	     -4.34501277	    -12.75880998	     14.00929197	     14.00929197	     21.67716778	     -0.66898717	     -2.33697703	     -8.75435144	      4.37744560	     -0.53937354	    -12.80244066	    -13.02465808	     -9.37954857	     28.60360199	     46.46819236	      0.00000000	      0.00000000	     11.53991615	    -20.27481282	    -11.33475313	     71.95135945	     47.58495678	      0.00000000	      0.00000000
